# xmcd CD database file
#
# Track frame offsets:
#	150
#	18032
#	33510
#	48773
#	65937
#	88518
#	102116
#	131048
#	152884
#	167123
#	189870
#	234530
#
# Disc length: 3225 seconds
#
# Revision: 2
# Processed by: cddbd v1.5.2PL0 Copyright (c) Steve Scherf et al.
# Submitted via: CDex 1.51
#
DISCID=940c970c
DTITLE=Jimmy Eat World - Futures
DYEAR=2004
DGENRE=Rock
TTITLE0=Futures
TTITLE1=Just Tonight...
TTITLE2=Work
TTITLE3=Kill
TTITLE4=The World You Love
TTITLE5=Pain
TTITLE6=Drugs or Me
TTITLE7=Polaris
TTITLE8=Nothingwrong
TTITLE9=Night Drive
TTITLE10=23
TTITLE11=Enhanced CD Data Track
EXTD=YEAR: 2004
EXTT0=
EXTT1=
EXTT2=
EXTT3=
EXTT4=
EXTT5=
EXTT6=
EXTT7=
EXTT8=
EXTT9=
EXTT10=
EXTT11=
PLAYORDER=
